<mxfile host="app.diagrams.net" modified="2022-10-08T20:46:22.923Z" agent="5.0 (X11; CrOS x86_64 14989.107.0) AppleWebKit/537.36 (KHTML, like Gecko) Chrome/105.0.0.0 Safari/537.36" etag="rY2GnSzHlxipDBzXgK25" version="20.3.6" type="github">
  <diagram id="vo1DzHbnaoQ0bcL8EPmp" name="Page-1">
    <mxGraphModel dx="868" dy="442" grid="1" gridSize="10" guides="1" tooltips="1" connect="1" arrows="1" fold="1" page="1" pageScale="1" pageWidth="850" pageHeight="1100" math="0" shadow="0">
      <root>
        <mxCell id="0" />
        <mxCell id="1" parent="0" />
        <mxCell id="qB8G0H3AkQ_cvFKgS19G-3" style="edgeStyle=orthogonalEdgeStyle;rounded=0;orthogonalLoop=1;jettySize=auto;html=1;exitX=0.5;exitY=1;exitDx=0;exitDy=0;entryX=0.5;entryY=0;entryDx=0;entryDy=0;" edge="1" parent="1" source="qB8G0H3AkQ_cvFKgS19G-1" target="qB8G0H3AkQ_cvFKgS19G-2">
          <mxGeometry relative="1" as="geometry" />
        </mxCell>
        <mxCell id="qB8G0H3AkQ_cvFKgS19G-1" value="Start" style="ellipse;whiteSpace=wrap;html=1;" vertex="1" parent="1">
          <mxGeometry x="340" y="50" width="120" height="80" as="geometry" />
        </mxCell>
        <mxCell id="qB8G0H3AkQ_cvFKgS19G-6" style="edgeStyle=orthogonalEdgeStyle;rounded=0;orthogonalLoop=1;jettySize=auto;html=1;exitX=0.5;exitY=1;exitDx=0;exitDy=0;entryX=0.5;entryY=0;entryDx=0;entryDy=0;" edge="1" parent="1" source="qB8G0H3AkQ_cvFKgS19G-2" target="qB8G0H3AkQ_cvFKgS19G-5">
          <mxGeometry relative="1" as="geometry" />
        </mxCell>
        <mxCell id="qB8G0H3AkQ_cvFKgS19G-2" value="Get subtotal" style="shape=parallelogram;perimeter=parallelogramPerimeter;whiteSpace=wrap;html=1;fixedSize=1;" vertex="1" parent="1">
          <mxGeometry x="340" y="170" width="120" height="60" as="geometry" />
        </mxCell>
        <mxCell id="qB8G0H3AkQ_cvFKgS19G-8" style="edgeStyle=orthogonalEdgeStyle;rounded=0;orthogonalLoop=1;jettySize=auto;html=1;exitX=0.5;exitY=1;exitDx=0;exitDy=0;entryX=0.5;entryY=0;entryDx=0;entryDy=0;" edge="1" parent="1" source="qB8G0H3AkQ_cvFKgS19G-5" target="qB8G0H3AkQ_cvFKgS19G-7">
          <mxGeometry relative="1" as="geometry" />
        </mxCell>
        <mxCell id="qB8G0H3AkQ_cvFKgS19G-5" value="Calculate HST" style="rounded=0;whiteSpace=wrap;html=1;" vertex="1" parent="1">
          <mxGeometry x="340" y="270" width="120" height="60" as="geometry" />
        </mxCell>
        <mxCell id="qB8G0H3AkQ_cvFKgS19G-10" style="edgeStyle=orthogonalEdgeStyle;rounded=0;orthogonalLoop=1;jettySize=auto;html=1;exitX=0.5;exitY=1;exitDx=0;exitDy=0;entryX=0.5;entryY=0;entryDx=0;entryDy=0;" edge="1" parent="1" source="qB8G0H3AkQ_cvFKgS19G-7" target="qB8G0H3AkQ_cvFKgS19G-9">
          <mxGeometry relative="1" as="geometry" />
        </mxCell>
        <mxCell id="qB8G0H3AkQ_cvFKgS19G-7" value="Calculate total" style="rounded=0;whiteSpace=wrap;html=1;" vertex="1" parent="1">
          <mxGeometry x="340" y="390" width="120" height="60" as="geometry" />
        </mxCell>
        <mxCell id="qB8G0H3AkQ_cvFKgS19G-12" style="edgeStyle=orthogonalEdgeStyle;rounded=0;orthogonalLoop=1;jettySize=auto;html=1;exitX=0.5;exitY=1;exitDx=0;exitDy=0;entryX=0.5;entryY=0;entryDx=0;entryDy=0;" edge="1" parent="1" source="qB8G0H3AkQ_cvFKgS19G-9" target="qB8G0H3AkQ_cvFKgS19G-11">
          <mxGeometry relative="1" as="geometry" />
        </mxCell>
        <mxCell id="qB8G0H3AkQ_cvFKgS19G-9" value="Display tax" style="shape=parallelogram;perimeter=parallelogramPerimeter;whiteSpace=wrap;html=1;fixedSize=1;" vertex="1" parent="1">
          <mxGeometry x="340" y="490" width="120" height="60" as="geometry" />
        </mxCell>
        <mxCell id="qB8G0H3AkQ_cvFKgS19G-14" style="edgeStyle=orthogonalEdgeStyle;rounded=0;orthogonalLoop=1;jettySize=auto;html=1;exitX=0.5;exitY=1;exitDx=0;exitDy=0;entryX=0.5;entryY=0;entryDx=0;entryDy=0;" edge="1" parent="1" source="qB8G0H3AkQ_cvFKgS19G-11" target="qB8G0H3AkQ_cvFKgS19G-13">
          <mxGeometry relative="1" as="geometry" />
        </mxCell>
        <mxCell id="qB8G0H3AkQ_cvFKgS19G-11" value="Display Total" style="shape=parallelogram;perimeter=parallelogramPerimeter;whiteSpace=wrap;html=1;fixedSize=1;" vertex="1" parent="1">
          <mxGeometry x="340" y="600" width="120" height="60" as="geometry" />
        </mxCell>
        <mxCell id="qB8G0H3AkQ_cvFKgS19G-13" value="End" style="ellipse;whiteSpace=wrap;html=1;" vertex="1" parent="1">
          <mxGeometry x="340" y="690" width="120" height="80" as="geometry" />
        </mxCell>
      </root>
    </mxGraphModel>
  </diagram>
</mxfile>
